<svg width="1395" height="294" viewBox="0 0 1395 294" fill="none" xmlns="http://www.w3.org/2000/svg">
<path d="M435.065 23.9318C435.065 24.9218 435.065 25.9118 435.065 26.9318C434.405 26.9318 433.745 26.9318 433.065 26.9318C432.792 27.5189 432.519 28.1059 432.237 28.7107C431.095 30.8752 429.861 32.587 428.307 34.4709C427.498 35.4586 427.498 35.4586 426.672 36.4663C426.1 37.1562 425.529 37.8461 424.94 38.5569C423.761 39.9901 422.583 41.4237 421.405 42.8576C420.832 43.5532 420.26 44.2489 419.67 44.9655C416.972 48.2703 414.357 51.6385 411.748 55.0139C410.016 56.9876 408.218 58.4385 406.065 59.9319C405.396 59.5567 404.727 59.1816 404.038 58.7951C397.982 55.5682 392.076 53.108 385.502 51.1819C384.831 50.9837 384.161 50.7856 383.469 50.5815C357.279 43.2202 330.993 45.8259 307.217 58.9519C266.388 82.574 254.412 123.914 242.565 166.826C239.681 177.217 236.79 187.034 230.627 195.994C230.258 196.561 229.889 197.127 229.508 197.711C227.622 200.44 226.491 201.799 223.28 202.803C222.183 202.867 222.183 202.867 221.065 202.932C205.277 167.93 206.945 127.613 219.065 91.9318C219.444 90.8104 219.823 89.6889 220.213 88.5334C232.644 55.6506 264.909 27.5766 296.041 13.007C336.469 -5.09772 399.193 -6.77234 435.065 23.9318Z" fill="#3F88D2"/>
<path d="M280.066 91.1487C282.065 91.9319 282.065 91.9319 283.627 95.2991C284.127 96.7951 284.605 98.2984 285.065 99.8069C285.319 100.607 285.573 101.407 285.835 102.231C289.583 114.402 292.62 127.167 293.065 139.932C293.117 140.995 293.168 142.059 293.221 143.155C294.204 180.774 280.524 213.376 257.065 241.932C256.592 242.509 256.12 243.086 255.633 243.68C252.503 247.485 249.311 251.226 246.065 254.932C245.424 255.671 244.784 256.409 244.124 257.17C220.675 282.442 182.476 291.365 149.545 293.119C119.824 293.73 92.2688 285.391 67.0649 269.932C67.7249 269.602 68.3849 269.272 69.0649 268.932C69.3408 268.378 69.6167 267.823 69.9009 267.252C71.4585 264.147 73.5572 261.529 75.6899 258.807C76.1336 258.235 76.5773 257.663 77.0344 257.074C80.4108 252.734 83.8537 248.448 87.3032 244.166C89.6718 241.162 91.8807 238.072 94.0649 234.932C98.2274 235.574 101.623 236.987 105.44 238.744C129.864 249.617 157.067 249.763 182.065 240.557C184.077 239.709 186.077 238.835 188.065 237.932C189.09 237.479 190.115 237.027 191.17 236.561C198.324 233.215 204.162 229.151 210.065 223.932C210.604 223.464 211.143 222.995 211.699 222.513C235.035 202.147 245.754 177.013 253.78 147.531C257.805 132.823 262.231 118.617 269.065 104.932C269.368 104.318 269.671 103.705 269.983 103.073C276.166 90.7262 276.166 90.7262 280.066 91.1487Z" fill="#3F88D2"/>
<path d="M438.065 26.9319C442.168 28.3092 444.733 30.1683 447.877 33.1194C448.748 33.9263 449.618 34.7333 450.514 35.5647C451.777 36.7365 451.777 36.7365 453.065 37.9319C454.435 39.1249 455.81 40.3129 457.19 41.4944C483.331 64.4982 499.431 98.7972 501.92 133.422C504.066 170.562 495.638 208.856 470.94 237.682C470.475 238.201 470.009 238.721 469.53 239.256C467.767 241.273 466.138 243.373 464.502 245.494C463.909 246.258 463.317 247.021 462.706 247.807C461.377 249.528 460.063 251.259 458.752 252.994C453.354 258.895 446.814 263.669 440.065 267.932C437.443 266.883 436.271 266.283 434.815 263.807C434.567 263.188 434.32 262.569 434.065 261.932C433.405 261.932 432.745 261.932 432.065 261.932C430.507 260.069 429.061 258.2 427.627 256.244C423.5 250.726 419.184 245.432 414.645 240.248C412.364 237.61 410.427 235.158 409.065 231.932C409.827 231.375 410.589 230.818 411.374 230.244C434.191 213.381 451.134 191.694 455.69 162.994C458.51 132.915 451.003 103.331 431.604 79.803C425.272 72.6429 418.188 66.9351 410.065 61.9319C411.661 58.2464 413.96 55.5319 416.565 52.4944C420.29 48.1142 423.851 43.6465 427.315 39.0569C430.628 34.6806 434.023 30.655 438.065 26.9319Z" fill="black"/>
<path d="M65.0652 25.9319C66.1511 27.4084 66.1511 27.4084 67.4402 29.5569C70.7184 34.6591 74.5439 39.1192 78.5173 43.6794C82.3153 48.0409 85.9706 52.4908 89.5417 57.0413C91.0748 59.0128 91.0748 59.0128 93.0652 60.9319C91.8315 61.8407 91.8315 61.8407 90.573 62.7678C72.5823 76.1822 57.5932 93.0131 51.0652 114.932C50.7959 115.826 50.5266 116.719 50.2492 117.64C41.902 146.111 44.878 170.67 59.0327 196.769C61.9306 201.917 65.2782 206.421 69.0652 210.932C69.7032 211.775 70.3413 212.618 70.9987 213.487C75.1822 218.983 79.3398 223.096 85.0652 226.932C86.4006 227.887 87.7341 228.845 89.0652 229.807C90.0552 230.508 91.0452 231.209 92.0652 231.932C90.6826 235.964 88.8248 238.699 86.0652 241.932C82.5603 246.108 79.1768 250.341 75.8777 254.682C72.4113 259.229 68.8521 263.647 65.0652 267.932C33.1336 248.672 12.7875 215.689 3.80734 180.096C-1.05585 158.775 -1.56679 133.125 4.06516 111.932C4.23676 111.245 4.40837 110.557 4.58518 109.849C7.24752 99.269 11.1178 89.638 16.0652 79.9319C16.537 78.9793 17.0088 78.0267 17.4948 77.0452C24.0388 64.3824 32.7945 53.5621 42.6662 43.3777C43.9486 42.0524 45.2129 40.7097 46.4753 39.3655C59.3634 25.9319 59.3634 25.9319 65.0652 25.9319Z" fill="black"/>
<path d="M148.752 0.556851C149.793 0.557667 149.793 0.557667 150.855 0.558499C162.643 0.600718 173.701 1.69674 185.065 4.93185C185.802 5.13021 186.54 5.32856 187.3 5.53293C208.424 11.3268 229.224 22.7281 245.065 37.9319C246.318 40.1508 246.318 40.1508 247.065 41.9319C244.448 45.998 241.683 49.6495 238.502 53.3069C232.419 60.4251 227.257 68.1531 222.065 75.9319C217.339 73.3593 213.293 70.6195 209.127 67.1819C186.825 49.6003 158.102 44.2248 130.288 47.2321C118.672 49.0328 107.947 53.3573 97.2915 58.1897C96.5567 58.4346 95.822 58.6795 95.0649 58.9319C92.7524 57.6819 92.7524 57.6819 91.0649 55.9319C91.0649 55.2719 91.0649 54.6119 91.0649 53.9319C90.4049 53.9319 89.7449 53.9319 89.0649 53.9319C88.1558 52.5682 87.2536 51.1997 86.3774 49.8147C84.8797 47.6661 83.2081 45.8015 81.4399 43.8694C77.9889 40.0472 74.7349 36.1122 71.5649 32.0569C71.1194 31.4973 70.6739 30.9378 70.2148 30.3613C67.0649 26.2857 67.0649 26.2857 67.0649 22.9319C92.5385 7.62689 118.938 0.467788 148.752 0.556851Z" fill="#008080"/>
<path d="M279.065 217.932C284.355 218.372 286.964 220.064 291.002 223.432C312.922 240.973 336.983 248.847 365.065 246.932C377.456 245.541 388.731 242.022 400.065 236.932C402.395 235.925 404.73 234.929 407.065 233.932C407.706 234.778 408.346 235.623 409.006 236.494C413.278 242.106 417.564 247.637 422.272 252.893C427.093 258.375 431.728 264.058 436.065 269.932C418.545 281.429 397.691 288.653 377.065 291.932C376.257 292.063 375.448 292.195 374.616 292.33C341.153 296.652 300.288 288.448 273.065 267.932C268.522 264.407 264.043 260.808 259.608 257.149C258.151 256 256.609 254.961 255.065 253.932C256.44 249.906 258.278 247.252 261.065 244.057C267.881 235.939 273.686 227.058 279.065 217.932Z" fill="#008080"/>
<path d="M554.045 162V68.9091H617.591V87.1818H576.545V106.273H613.545V124.591H576.545V162H554.045ZM651.148 68.9091V162H628.92V68.9091H651.148ZM710.341 131.864V92.1818H732.523V162H711.341V149H710.614C709.068 153.273 706.432 156.667 702.705 159.182C699.008 161.667 694.538 162.909 689.295 162.909C684.538 162.909 680.356 161.818 676.75 159.636C673.144 157.455 670.341 154.409 668.341 150.5C666.341 146.561 665.326 141.955 665.295 136.682V92.1818H687.523V132.318C687.553 136.106 688.553 139.091 690.523 141.273C692.492 143.455 695.174 144.545 698.568 144.545C700.78 144.545 702.765 144.061 704.523 143.091C706.311 142.091 707.72 140.652 708.75 138.773C709.811 136.864 710.341 134.561 710.341 131.864ZM769.443 68.9091L786.443 98.3182H787.17L804.352 68.9091H829.534L801.443 115.455L830.443 162H804.625L787.17 132.273H786.443L768.989 162H743.352L772.216 115.455L744.08 68.9091H769.443ZM854.761 188.182C852.095 188.182 849.58 187.97 847.216 187.545C844.852 187.152 842.822 186.621 841.125 185.955L846.034 169.818C848.216 170.545 850.186 170.97 851.943 171.091C853.731 171.212 855.261 170.924 856.534 170.227C857.837 169.561 858.837 168.364 859.534 166.636L860.398 164.545L835.58 92.1818H858.852L871.716 142H872.443L885.489 92.1818H908.898L882.58 168.682C881.307 172.5 879.504 175.864 877.17 178.773C874.867 181.712 871.883 184.015 868.216 185.682C864.58 187.348 860.095 188.182 854.761 188.182ZM978.375 113.5L957.966 114.045C957.754 112.591 957.178 111.303 956.239 110.182C955.299 109.03 954.072 108.136 952.557 107.5C951.072 106.833 949.345 106.5 947.375 106.5C944.799 106.5 942.602 107.015 940.784 108.045C938.996 109.076 938.117 110.47 938.148 112.227C938.117 113.591 938.663 114.773 939.784 115.773C940.936 116.773 942.981 117.576 945.92 118.182L959.375 120.727C966.345 122.061 971.527 124.273 974.92 127.364C978.345 130.455 980.072 134.545 980.102 139.636C980.072 144.424 978.648 148.591 975.83 152.136C973.042 155.682 969.223 158.439 964.375 160.409C959.527 162.348 953.981 163.318 947.739 163.318C937.769 163.318 929.905 161.273 924.148 157.182C918.42 153.061 915.148 147.545 914.33 140.636L936.284 140.091C936.769 142.636 938.027 144.576 940.057 145.909C942.087 147.242 944.678 147.909 947.83 147.909C950.678 147.909 952.996 147.379 954.784 146.318C956.572 145.258 957.481 143.848 957.511 142.091C957.481 140.515 956.784 139.258 955.42 138.318C954.057 137.348 951.92 136.591 949.011 136.045L936.83 133.727C929.83 132.455 924.617 130.106 921.193 126.682C917.769 123.227 916.072 118.833 916.102 113.5C916.072 108.833 917.314 104.848 919.83 101.545C922.345 98.2121 925.92 95.6667 930.557 93.9091C935.193 92.1515 940.663 91.2727 946.966 91.2727C956.42 91.2727 963.875 93.2576 969.33 97.2273C974.784 101.167 977.799 106.591 978.375 113.5ZM1025.45 162H991.045V68.9091H1025.41C1034.89 68.9091 1043.06 70.7727 1049.91 74.5C1056.79 78.197 1062.09 83.5303 1065.82 90.5C1069.55 97.4394 1071.41 105.742 1071.41 115.409C1071.41 125.106 1069.55 133.439 1065.82 140.409C1062.12 147.379 1056.83 152.727 1049.95 156.455C1043.08 160.152 1034.91 162 1025.45 162ZM1013.55 142.818H1024.59C1029.8 142.818 1034.21 141.939 1037.82 140.182C1041.45 138.394 1044.2 135.5 1046.05 131.5C1047.92 127.47 1048.86 122.106 1048.86 115.409C1048.86 108.712 1047.92 103.379 1046.05 99.4091C1044.17 95.4091 1041.39 92.5303 1037.73 90.7727C1034.09 88.9848 1029.61 88.0909 1024.27 88.0909H1013.55V142.818ZM1084.55 162V92.1818H1106.77V162H1084.55ZM1095.68 84.0455C1092.56 84.0455 1089.88 83.0152 1087.64 80.9545C1085.39 78.8636 1084.27 76.3485 1084.27 73.4091C1084.27 70.5 1085.39 68.0151 1087.64 65.9545C1089.88 63.8636 1092.56 62.8182 1095.68 62.8182C1098.83 62.8182 1101.52 63.8636 1103.73 65.9545C1105.97 68.0151 1107.09 70.5 1107.09 73.4091C1107.09 76.3485 1105.97 78.8636 1103.73 80.9545C1101.52 83.0152 1098.83 84.0455 1095.68 84.0455ZM1153.47 189.636C1146.83 189.636 1141.15 188.712 1136.42 186.864C1131.69 185.015 1127.98 182.485 1125.28 179.273C1122.59 176.061 1120.97 172.424 1120.42 168.364L1141.47 167.182C1141.86 168.606 1142.59 169.848 1143.65 170.909C1144.74 171.97 1146.15 172.788 1147.88 173.364C1149.63 173.939 1151.69 174.227 1154.06 174.227C1157.78 174.227 1160.86 173.318 1163.28 171.5C1165.74 169.712 1166.97 166.576 1166.97 162.091V149.818H1166.19C1165.31 151.97 1163.98 153.894 1162.19 155.591C1160.41 157.288 1158.18 158.621 1155.51 159.591C1152.88 160.561 1149.84 161.045 1146.42 161.045C1141.33 161.045 1136.66 159.864 1132.42 157.5C1128.21 155.106 1124.83 151.409 1122.28 146.409C1119.77 141.379 1118.51 134.909 1118.51 127C1118.51 118.848 1119.81 112.136 1122.42 106.864C1125.03 101.561 1128.44 97.6364 1132.65 95.0909C1136.89 92.5455 1141.45 91.2727 1146.33 91.2727C1150 91.2727 1153.13 91.9091 1155.74 93.1818C1158.38 94.4242 1160.54 96.0303 1162.24 98C1163.94 99.9697 1165.22 102.015 1166.1 104.136H1166.74V92.1818H1188.88V162.273C1188.88 168.182 1187.39 173.167 1184.42 177.227C1181.45 181.288 1177.3 184.364 1171.97 186.455C1166.63 188.576 1160.47 189.636 1153.47 189.636ZM1154.15 144.864C1156.84 144.864 1159.15 144.152 1161.06 142.727C1162.97 141.303 1164.44 139.258 1165.47 136.591C1166.5 133.924 1167.01 130.727 1167.01 127C1167.01 123.212 1166.5 119.955 1165.47 117.227C1164.47 114.47 1163 112.348 1161.06 110.864C1159.15 109.379 1156.84 108.636 1154.15 108.636C1151.39 108.636 1149.06 109.394 1147.15 110.909C1145.24 112.424 1143.78 114.561 1142.78 117.318C1141.81 120.045 1141.33 123.273 1141.33 127C1141.33 130.727 1141.83 133.924 1142.83 136.591C1143.83 139.258 1145.27 141.303 1147.15 142.727C1149.06 144.152 1151.39 144.864 1154.15 144.864ZM1203.05 162V92.1818H1225.27V162H1203.05ZM1214.18 84.0455C1211.06 84.0455 1208.38 83.0152 1206.14 80.9545C1203.89 78.8636 1202.77 76.3485 1202.77 73.4091C1202.77 70.5 1203.89 68.0151 1206.14 65.9545C1208.38 63.8636 1211.06 62.8182 1214.18 62.8182C1217.33 62.8182 1220.02 63.8636 1222.23 65.9545C1224.47 68.0151 1225.59 70.5 1225.59 73.4091C1225.59 76.3485 1224.47 78.8636 1222.23 80.9545C1220.02 83.0152 1217.33 84.0455 1214.18 84.0455ZM1278.83 92.1818V108.545H1234.78V92.1818H1278.83ZM1244.01 75.4545H1266.24V140.045C1266.24 141.409 1266.45 142.515 1266.88 143.364C1267.33 144.182 1267.98 144.773 1268.83 145.136C1269.68 145.47 1270.69 145.636 1271.88 145.636C1272.72 145.636 1273.62 145.561 1274.56 145.409C1275.53 145.227 1276.25 145.076 1276.74 144.955L1280.1 161C1279.04 161.303 1277.54 161.682 1275.6 162.136C1273.69 162.591 1271.41 162.879 1268.74 163C1263.53 163.242 1259.06 162.636 1255.33 161.182C1251.63 159.697 1248.8 157.394 1246.83 154.273C1244.89 151.152 1243.95 147.227 1244.01 142.5V75.4545ZM1309.85 163.182C1305.4 163.182 1301.44 162.439 1297.99 160.955C1294.56 159.439 1291.85 157.167 1289.85 154.136C1287.88 151.076 1286.9 147.242 1286.9 142.636C1286.9 138.758 1287.58 135.485 1288.94 132.818C1290.31 130.152 1292.19 127.985 1294.58 126.318C1296.97 124.652 1299.73 123.394 1302.85 122.545C1305.97 121.667 1309.31 121.076 1312.85 120.773C1316.82 120.409 1320.02 120.03 1322.44 119.636C1324.87 119.212 1326.63 118.621 1327.72 117.864C1328.84 117.076 1329.4 115.97 1329.4 114.545V114.318C1329.4 111.985 1328.59 110.182 1326.99 108.909C1325.38 107.636 1323.22 107 1320.49 107C1317.55 107 1315.19 107.636 1313.4 108.909C1311.61 110.182 1310.47 111.939 1309.99 114.182L1289.49 113.455C1290.09 109.212 1291.66 105.424 1294.17 102.091C1296.72 98.7273 1300.2 96.0909 1304.62 94.1818C1309.08 92.2424 1314.43 91.2727 1320.67 91.2727C1325.13 91.2727 1329.23 91.803 1332.99 92.8636C1336.75 93.8939 1340.02 95.4091 1342.81 97.4091C1345.59 99.3788 1347.75 101.803 1349.26 104.682C1350.81 107.561 1351.58 110.848 1351.58 114.545V162H1330.67V152.273H1330.12C1328.88 154.636 1327.29 156.636 1325.35 158.273C1323.44 159.909 1321.19 161.136 1318.58 161.955C1316 162.773 1313.09 163.182 1309.85 163.182ZM1316.72 148.636C1319.11 148.636 1321.26 148.152 1323.17 147.182C1325.11 146.212 1326.66 144.879 1327.81 143.182C1328.96 141.455 1329.53 139.455 1329.53 137.182V130.545C1328.9 130.879 1328.13 131.182 1327.22 131.455C1326.34 131.727 1325.37 131.985 1324.31 132.227C1323.25 132.47 1322.16 132.682 1321.03 132.864C1319.91 133.045 1318.84 133.212 1317.81 133.364C1315.72 133.697 1313.93 134.212 1312.44 134.909C1310.99 135.606 1309.87 136.515 1309.08 137.636C1308.32 138.727 1307.94 140.03 1307.94 141.545C1307.94 143.848 1308.76 145.606 1310.4 146.818C1312.06 148.03 1314.17 148.636 1316.72 148.636ZM1387.4 68.9091V162H1365.17V68.9091H1387.4Z" fill="black"/>
<path d="M548.197 206.408H554.468L564.027 223.042H564.42L573.979 206.408H580.251L566.976 228.635V243H561.472V228.635L548.197 206.408ZM592.074 243.554C589.502 243.554 587.256 242.964 585.338 241.785C583.421 240.606 581.932 238.956 580.872 236.836C579.812 234.716 579.282 232.238 579.282 229.403C579.282 226.556 579.812 224.067 580.872 221.935C581.932 219.802 583.421 218.147 585.338 216.968C587.256 215.788 589.502 215.199 592.074 215.199C594.647 215.199 596.893 215.788 598.81 216.968C600.728 218.147 602.217 219.802 603.277 221.935C604.337 224.067 604.867 226.556 604.867 229.403C604.867 232.238 604.337 234.716 603.277 236.836C602.217 238.956 600.728 240.606 598.81 241.785C596.893 242.964 594.647 243.554 592.074 243.554ZM592.092 239.069C593.76 239.069 595.142 238.628 596.237 237.747C597.333 236.866 598.143 235.692 598.667 234.227C599.203 232.762 599.471 231.148 599.471 229.385C599.471 227.634 599.203 226.026 598.667 224.561C598.143 223.084 597.333 221.899 596.237 221.006C595.142 220.112 593.76 219.665 592.092 219.665C590.413 219.665 589.019 220.112 587.911 221.006C586.816 221.899 586 223.084 585.464 224.561C584.939 226.026 584.677 227.634 584.677 229.385C584.677 231.148 584.939 232.762 585.464 234.227C586 235.692 586.816 236.866 587.911 237.747C589.019 238.628 590.413 239.069 592.092 239.069ZM628.215 231.619V215.556H633.575V243H628.322V238.247H628.037C627.405 239.712 626.393 240.933 624.999 241.91C623.617 242.875 621.896 243.357 619.836 243.357C618.073 243.357 616.512 242.97 615.154 242.196C613.808 241.41 612.748 240.248 611.974 238.712C611.212 237.175 610.83 235.275 610.83 233.012V215.556H616.173V232.369C616.173 234.239 616.691 235.728 617.727 236.836C618.764 237.944 620.11 238.497 621.765 238.497C622.766 238.497 623.76 238.247 624.749 237.747C625.75 237.247 626.577 236.49 627.233 235.478C627.9 234.465 628.227 233.179 628.215 231.619ZM640.754 243V215.556H645.917V219.916H646.203C646.703 218.439 647.585 217.277 648.847 216.432C650.122 215.574 651.563 215.145 653.171 215.145C653.505 215.145 653.898 215.157 654.35 215.181C654.815 215.205 655.178 215.234 655.44 215.27V220.38C655.226 220.321 654.845 220.255 654.297 220.184C653.749 220.1 653.201 220.059 652.653 220.059C651.39 220.059 650.265 220.327 649.276 220.863C648.299 221.387 647.525 222.119 646.953 223.06C646.382 223.989 646.096 225.049 646.096 226.241V243H640.754ZM685.654 243H673.808V206.408H686.029C689.614 206.408 692.693 207.141 695.266 208.606C697.839 210.059 699.811 212.149 701.18 214.877C702.562 217.593 703.253 220.851 703.253 224.65C703.253 228.462 702.556 231.738 701.162 234.477C699.781 237.217 697.78 239.325 695.159 240.802C692.539 242.267 689.37 243 685.654 243ZM679.329 238.176H685.35C688.137 238.176 690.454 237.652 692.3 236.604C694.147 235.543 695.528 234.013 696.446 232.012C697.363 229.999 697.821 227.545 697.821 224.65C697.821 221.78 697.363 219.344 696.446 217.343C695.54 215.342 694.188 213.823 692.39 212.787C690.591 211.75 688.358 211.232 685.689 211.232H679.329V238.176ZM709.69 243V215.556H715.032V243H709.69ZM712.388 211.321C711.458 211.321 710.66 211.012 709.993 210.392C709.338 209.761 709.011 209.011 709.011 208.141C709.011 207.26 709.338 206.509 709.993 205.89C710.66 205.259 711.458 204.943 712.388 204.943C713.317 204.943 714.109 205.259 714.764 205.89C715.431 206.509 715.764 207.26 715.764 208.141C715.764 209.011 715.431 209.761 714.764 210.392C714.109 211.012 713.317 211.321 712.388 211.321ZM733.725 253.863C731.546 253.863 729.67 253.577 728.097 253.006C726.537 252.434 725.262 251.677 724.274 250.736C723.285 249.795 722.546 248.765 722.058 247.645L726.65 245.752C726.972 246.276 727.4 246.83 727.936 247.413C728.484 248.009 729.223 248.515 730.152 248.932C731.093 249.349 732.302 249.557 733.779 249.557C735.804 249.557 737.477 249.063 738.8 248.074C740.122 247.098 740.783 245.537 740.783 243.393V237.997H740.443C740.122 238.581 739.657 239.23 739.05 239.945C738.454 240.659 737.632 241.279 736.584 241.803C735.536 242.327 734.172 242.589 732.493 242.589C730.325 242.589 728.371 242.083 726.632 241.07C724.905 240.046 723.535 238.539 722.523 236.55C721.522 234.549 721.022 232.089 721.022 229.171C721.022 226.253 721.516 223.751 722.505 221.667C723.505 219.582 724.875 217.986 726.614 216.878C728.353 215.759 730.325 215.199 732.528 215.199C734.232 215.199 735.607 215.485 736.656 216.056C737.704 216.616 738.52 217.271 739.103 218.022C739.699 218.772 740.158 219.433 740.479 220.005H740.872V215.556H746.107V243.607C746.107 245.966 745.559 247.902 744.464 249.414C743.368 250.927 741.885 252.047 740.015 252.773C738.156 253.5 736.06 253.863 733.725 253.863ZM733.672 238.158C735.208 238.158 736.507 237.801 737.567 237.086C738.639 236.359 739.449 235.323 739.997 233.977C740.557 232.619 740.837 230.993 740.837 229.099C740.837 227.253 740.563 225.627 740.015 224.222C739.467 222.816 738.663 221.72 737.603 220.934C736.542 220.136 735.232 219.737 733.672 219.737C732.064 219.737 730.724 220.154 729.652 220.988C728.58 221.81 727.77 222.929 727.222 224.347C726.686 225.764 726.418 227.348 726.418 229.099C726.418 230.898 726.692 232.476 727.24 233.834C727.788 235.192 728.598 236.252 729.67 237.014C730.753 237.777 732.088 238.158 733.672 238.158ZM753.272 243V215.556H758.614V243H753.272ZM755.97 211.321C755.041 211.321 754.243 211.012 753.576 210.392C752.921 209.761 752.593 209.011 752.593 208.141C752.593 207.26 752.921 206.509 753.576 205.89C754.243 205.259 755.041 204.943 755.97 204.943C756.899 204.943 757.691 205.259 758.346 205.89C759.013 206.509 759.347 207.26 759.347 208.141C759.347 209.011 759.013 209.761 758.346 210.392C757.691 211.012 756.899 211.321 755.97 211.321ZM778.612 215.556V219.844H763.622V215.556H778.612ZM767.642 208.981H772.984V234.942C772.984 235.978 773.139 236.758 773.449 237.283C773.758 237.795 774.157 238.146 774.646 238.337C775.146 238.515 775.688 238.605 776.272 238.605C776.7 238.605 777.076 238.575 777.397 238.515C777.719 238.456 777.969 238.408 778.148 238.372L779.112 242.786C778.803 242.905 778.362 243.024 777.79 243.143C777.219 243.274 776.504 243.345 775.646 243.357C774.241 243.381 772.93 243.131 771.715 242.607C770.5 242.083 769.518 241.273 768.767 240.177C768.017 239.081 767.642 237.705 767.642 236.05V208.981ZM792.508 243.607C790.769 243.607 789.197 243.286 787.791 242.643C786.386 241.988 785.272 241.041 784.45 239.802C783.64 238.563 783.235 237.044 783.235 235.246C783.235 233.697 783.533 232.423 784.129 231.422C784.724 230.422 785.528 229.629 786.541 229.046C787.553 228.462 788.685 228.021 789.936 227.724C791.186 227.426 792.461 227.199 793.759 227.045C795.403 226.854 796.737 226.699 797.761 226.58C798.786 226.449 799.53 226.241 799.995 225.955C800.459 225.669 800.692 225.204 800.692 224.561V224.436C800.692 222.876 800.251 221.667 799.369 220.809C798.5 219.951 797.201 219.523 795.474 219.523C793.676 219.523 792.258 219.922 791.222 220.72C790.198 221.506 789.489 222.381 789.096 223.346L784.075 222.203C784.671 220.535 785.54 219.189 786.684 218.165C787.839 217.128 789.167 216.378 790.668 215.913C792.169 215.437 793.747 215.199 795.403 215.199C796.499 215.199 797.66 215.33 798.887 215.592C800.126 215.842 801.281 216.306 802.353 216.985C803.437 217.664 804.325 218.635 805.015 219.898C805.706 221.148 806.052 222.774 806.052 224.775V243H800.834V239.248H800.62C800.275 239.939 799.756 240.618 799.066 241.285C798.375 241.952 797.487 242.506 796.403 242.946C795.319 243.387 794.021 243.607 792.508 243.607ZM793.67 239.319C795.147 239.319 796.409 239.028 797.458 238.444C798.518 237.86 799.322 237.098 799.87 236.157C800.429 235.204 800.709 234.186 800.709 233.102V229.564C800.519 229.754 800.15 229.933 799.602 230.1C799.066 230.255 798.452 230.392 797.761 230.511C797.07 230.618 796.397 230.719 795.742 230.815C795.087 230.898 794.539 230.969 794.099 231.029C793.062 231.16 792.115 231.38 791.258 231.69C790.412 232 789.733 232.446 789.221 233.03C788.721 233.602 788.47 234.364 788.47 235.317C788.47 236.639 788.959 237.64 789.936 238.319C790.912 238.986 792.157 239.319 793.67 239.319ZM818.51 206.408V243H813.167V206.408H818.51ZM837.636 211.161V206.408H865.956V211.161H854.539V243H849.036V211.161H837.636ZM868.935 243V215.556H874.099V219.916H874.385C874.885 218.439 875.766 217.277 877.029 216.432C878.304 215.574 879.745 215.145 881.353 215.145C881.686 215.145 882.08 215.157 882.532 215.181C882.997 215.205 883.36 215.234 883.622 215.27V220.38C883.408 220.321 883.026 220.255 882.479 220.184C881.931 220.1 881.383 220.059 880.835 220.059C879.572 220.059 878.447 220.327 877.458 220.863C876.481 221.387 875.707 222.119 875.135 223.06C874.563 223.989 874.278 225.049 874.278 226.241V243H868.935ZM895.986 243.607C894.247 243.607 892.675 243.286 891.269 242.643C889.864 241.988 888.75 241.041 887.928 239.802C887.118 238.563 886.713 237.044 886.713 235.246C886.713 233.697 887.011 232.423 887.606 231.422C888.202 230.422 889.006 229.629 890.018 229.046C891.031 228.462 892.163 228.021 893.413 227.724C894.664 227.426 895.938 227.199 897.237 227.045C898.881 226.854 900.215 226.699 901.239 226.58C902.263 226.449 903.008 226.241 903.472 225.955C903.937 225.669 904.169 225.204 904.169 224.561V224.436C904.169 222.876 903.729 221.667 902.847 220.809C901.978 219.951 900.679 219.523 898.952 219.523C897.153 219.523 895.736 219.922 894.7 220.72C893.675 221.506 892.967 222.381 892.574 223.346L887.553 222.203C888.148 220.535 889.018 219.189 890.161 218.165C891.317 217.128 892.645 216.378 894.146 215.913C895.647 215.437 897.225 215.199 898.881 215.199C899.976 215.199 901.138 215.33 902.365 215.592C903.604 215.842 904.759 216.306 905.831 216.985C906.915 217.664 907.802 218.635 908.493 219.898C909.184 221.148 909.529 222.774 909.529 224.775V243H904.312V239.248H904.098C903.752 239.939 903.234 240.618 902.543 241.285C901.853 241.952 900.965 242.506 899.881 242.946C898.797 243.387 897.499 243.607 895.986 243.607ZM897.147 239.319C898.625 239.319 899.887 239.028 900.935 238.444C901.995 237.86 902.799 237.098 903.347 236.157C903.907 235.204 904.187 234.186 904.187 233.102V229.564C903.997 229.754 903.627 229.933 903.079 230.1C902.543 230.255 901.93 230.392 901.239 230.511C900.548 230.618 899.875 230.719 899.22 230.815C898.565 230.898 898.017 230.969 897.576 231.029C896.54 231.16 895.593 231.38 894.735 231.69C893.89 232 893.211 232.446 892.699 233.03C892.198 233.602 891.948 234.364 891.948 235.317C891.948 236.639 892.437 237.64 893.413 238.319C894.39 238.986 895.635 239.319 897.147 239.319ZM921.987 226.705V243H916.645V215.556H921.773V220.023H922.112C922.744 218.57 923.732 217.402 925.078 216.521C926.436 215.639 928.146 215.199 930.206 215.199C932.076 215.199 933.714 215.592 935.12 216.378C936.525 217.152 937.615 218.308 938.389 219.844C939.164 221.381 939.551 223.281 939.551 225.544V243H934.208V226.187C934.208 224.198 933.69 222.643 932.654 221.524C931.618 220.392 930.194 219.826 928.384 219.826C927.145 219.826 926.043 220.094 925.078 220.63C924.125 221.166 923.369 221.952 922.809 222.989C922.261 224.013 921.987 225.252 921.987 226.705ZM967.281 222.256L962.439 223.114C962.236 222.494 961.915 221.905 961.474 221.345C961.045 220.785 960.461 220.327 959.723 219.969C958.984 219.612 958.061 219.433 956.953 219.433C955.441 219.433 954.178 219.773 953.166 220.452C952.153 221.119 951.647 221.982 951.647 223.042C951.647 223.96 951.986 224.698 952.665 225.258C953.344 225.818 954.44 226.276 955.953 226.634L960.312 227.634C962.838 228.218 964.72 229.117 965.958 230.332C967.197 231.547 967.817 233.125 967.817 235.067C967.817 236.711 967.34 238.176 966.387 239.462C965.446 240.737 964.13 241.737 962.439 242.464C960.759 243.191 958.812 243.554 956.596 243.554C953.523 243.554 951.016 242.899 949.074 241.588C947.132 240.266 945.941 238.39 945.501 235.96L950.664 235.174C950.986 236.52 951.647 237.539 952.647 238.229C953.648 238.908 954.952 239.248 956.56 239.248C958.311 239.248 959.711 238.885 960.759 238.158C961.807 237.419 962.331 236.52 962.331 235.46C962.331 234.602 962.01 233.882 961.367 233.298C960.735 232.714 959.765 232.274 958.454 231.976L953.809 230.958C951.248 230.374 949.354 229.445 948.127 228.17C946.912 226.896 946.305 225.282 946.305 223.328C946.305 221.708 946.757 220.291 947.662 219.076C948.568 217.861 949.818 216.914 951.415 216.235C953.011 215.544 954.839 215.199 956.9 215.199C959.866 215.199 962.2 215.842 963.904 217.128C965.607 218.403 966.733 220.112 967.281 222.256ZM986.751 215.556V219.844H971.243V215.556H986.751ZM975.495 243V212.376C975.495 210.66 975.87 209.237 976.621 208.105C977.371 206.962 978.366 206.11 979.605 205.55C980.843 204.979 982.189 204.693 983.643 204.693C984.715 204.693 985.632 204.782 986.394 204.961C987.156 205.128 987.722 205.282 988.091 205.425L986.841 209.749C986.591 209.678 986.269 209.594 985.876 209.499C985.483 209.392 985.006 209.338 984.447 209.338C983.148 209.338 982.219 209.66 981.659 210.303C981.111 210.946 980.837 211.875 980.837 213.09V243H975.495ZM1002.74 243.554C1000.17 243.554 997.924 242.964 996.007 241.785C994.089 240.606 992.6 238.956 991.54 236.836C990.48 234.716 989.95 232.238 989.95 229.403C989.95 226.556 990.48 224.067 991.54 221.935C992.6 219.802 994.089 218.147 996.007 216.968C997.924 215.788 1000.17 215.199 1002.74 215.199C1005.32 215.199 1007.56 215.788 1009.48 216.968C1011.4 218.147 1012.89 219.802 1013.95 221.935C1015.01 224.067 1015.54 226.556 1015.54 229.403C1015.54 232.238 1015.01 234.716 1013.95 236.836C1012.89 238.956 1011.4 240.606 1009.48 241.785C1007.56 242.964 1005.32 243.554 1002.74 243.554ZM1002.76 239.069C1004.43 239.069 1005.81 238.628 1006.91 237.747C1008 236.866 1008.81 235.692 1009.34 234.227C1009.87 232.762 1010.14 231.148 1010.14 229.385C1010.14 227.634 1009.87 226.026 1009.34 224.561C1008.81 223.084 1008 221.899 1006.91 221.006C1005.81 220.112 1004.43 219.665 1002.76 219.665C1001.08 219.665 999.687 220.112 998.579 221.006C997.484 221.899 996.668 223.084 996.132 224.561C995.608 226.026 995.345 227.634 995.345 229.385C995.345 231.148 995.608 232.762 996.132 234.227C996.668 235.692 997.484 236.866 998.579 237.747C999.687 238.628 1001.08 239.069 1002.76 239.069ZM1021.5 243V215.556H1026.66V219.916H1026.95C1027.45 218.439 1028.33 217.277 1029.59 216.432C1030.87 215.574 1032.31 215.145 1033.92 215.145C1034.25 215.145 1034.64 215.157 1035.1 215.181C1035.56 215.205 1035.92 215.234 1036.19 215.27V220.38C1035.97 220.321 1035.59 220.255 1035.04 220.184C1034.49 220.1 1033.95 220.059 1033.4 220.059C1032.14 220.059 1031.01 220.327 1030.02 220.863C1029.04 221.387 1028.27 222.119 1027.7 223.06C1027.13 223.989 1026.84 225.049 1026.84 226.241V243H1021.5ZM1040.81 243V215.556H1045.94V220.023H1046.28C1046.85 218.51 1047.78 217.331 1049.08 216.485C1050.38 215.627 1051.93 215.199 1053.74 215.199C1055.58 215.199 1057.12 215.627 1058.35 216.485C1059.6 217.343 1060.53 218.522 1061.12 220.023H1061.41C1062.06 218.558 1063.11 217.39 1064.54 216.521C1065.97 215.639 1067.67 215.199 1069.65 215.199C1072.14 215.199 1074.17 215.979 1075.74 217.539C1077.32 219.1 1078.12 221.452 1078.12 224.597V243H1072.77V225.097C1072.77 223.239 1072.27 221.893 1071.25 221.059C1070.24 220.225 1069.03 219.808 1067.63 219.808C1065.89 219.808 1064.54 220.344 1063.57 221.416C1062.61 222.477 1062.12 223.84 1062.12 225.508V243H1056.8V224.758C1056.8 223.269 1056.34 222.072 1055.41 221.166C1054.48 220.261 1053.27 219.808 1051.78 219.808C1050.77 219.808 1049.83 220.076 1048.97 220.612C1048.13 221.137 1047.44 221.869 1046.92 222.81C1046.41 223.751 1046.15 224.841 1046.15 226.08V243H1040.81ZM1093.26 243.607C1091.52 243.607 1089.95 243.286 1088.55 242.643C1087.14 241.988 1086.03 241.041 1085.2 239.802C1084.39 238.563 1083.99 237.044 1083.99 235.246C1083.99 233.697 1084.29 232.423 1084.88 231.422C1085.48 230.422 1086.28 229.629 1087.29 229.046C1088.31 228.462 1089.44 228.021 1090.69 227.724C1091.94 227.426 1093.21 227.199 1094.51 227.045C1096.16 226.854 1097.49 226.699 1098.52 226.58C1099.54 226.449 1100.28 226.241 1100.75 225.955C1101.21 225.669 1101.45 225.204 1101.45 224.561V224.436C1101.45 222.876 1101 221.667 1100.12 220.809C1099.25 219.951 1097.96 219.523 1096.23 219.523C1094.43 219.523 1093.01 219.922 1091.98 220.72C1090.95 221.506 1090.24 222.381 1089.85 223.346L1084.83 222.203C1085.42 220.535 1086.29 219.189 1087.44 218.165C1088.59 217.128 1089.92 216.378 1091.42 215.913C1092.92 215.437 1094.5 215.199 1096.16 215.199C1097.25 215.199 1098.41 215.33 1099.64 215.592C1100.88 215.842 1102.03 216.306 1103.11 216.985C1104.19 217.664 1105.08 218.635 1105.77 219.898C1106.46 221.148 1106.81 222.774 1106.81 224.775V243H1101.59V239.248H1101.37C1101.03 239.939 1100.51 240.618 1099.82 241.285C1099.13 241.952 1098.24 242.506 1097.16 242.946C1096.07 243.387 1094.77 243.607 1093.26 243.607ZM1094.42 239.319C1095.9 239.319 1097.16 239.028 1098.21 238.444C1099.27 237.86 1100.08 237.098 1100.62 236.157C1101.18 235.204 1101.46 234.186 1101.46 233.102V229.564C1101.27 229.754 1100.9 229.933 1100.36 230.1C1099.82 230.255 1099.21 230.392 1098.52 230.511C1097.82 230.618 1097.15 230.719 1096.5 230.815C1095.84 230.898 1095.29 230.969 1094.85 231.029C1093.82 231.16 1092.87 231.38 1092.01 231.69C1091.17 232 1090.49 232.446 1089.97 233.03C1089.47 233.602 1089.22 234.364 1089.22 235.317C1089.22 236.639 1089.71 237.64 1090.69 238.319C1091.67 238.986 1092.91 239.319 1094.42 239.319ZM1126.73 215.556V219.844H1111.74V215.556H1126.73ZM1115.76 208.981H1121.1V234.942C1121.1 235.978 1121.26 236.758 1121.57 237.283C1121.88 237.795 1122.28 238.146 1122.77 238.337C1123.27 238.515 1123.81 238.605 1124.39 238.605C1124.82 238.605 1125.2 238.575 1125.52 238.515C1125.84 238.456 1126.09 238.408 1126.27 238.372L1127.23 242.786C1126.92 242.905 1126.48 243.024 1125.91 243.143C1125.34 243.274 1124.62 243.345 1123.77 243.357C1122.36 243.381 1121.05 243.131 1119.84 242.607C1118.62 242.083 1117.64 241.273 1116.89 240.177C1116.14 239.081 1115.76 237.705 1115.76 236.05V208.981ZM1132.64 243V215.556H1137.98V243H1132.64ZM1135.34 211.321C1134.41 211.321 1133.61 211.012 1132.95 210.392C1132.29 209.761 1131.96 209.011 1131.96 208.141C1131.96 207.26 1132.29 206.509 1132.95 205.89C1133.61 205.259 1134.41 204.943 1135.34 204.943C1136.27 204.943 1137.06 205.259 1137.72 205.89C1138.38 206.509 1138.72 207.26 1138.72 208.141C1138.72 209.011 1138.38 209.761 1137.72 210.392C1137.06 211.012 1136.27 211.321 1135.34 211.321ZM1156.73 243.554C1154.16 243.554 1151.91 242.964 1149.99 241.785C1148.08 240.606 1146.59 238.956 1145.53 236.836C1144.47 234.716 1143.94 232.238 1143.94 229.403C1143.94 226.556 1144.47 224.067 1145.53 221.935C1146.59 219.802 1148.08 218.147 1149.99 216.968C1151.91 215.788 1154.16 215.199 1156.73 215.199C1159.3 215.199 1161.55 215.788 1163.47 216.968C1165.38 218.147 1166.87 219.802 1167.93 221.935C1168.99 224.067 1169.52 226.556 1169.52 229.403C1169.52 232.238 1168.99 234.716 1167.93 236.836C1166.87 238.956 1165.38 240.606 1163.47 241.785C1161.55 242.964 1159.3 243.554 1156.73 243.554ZM1156.75 239.069C1158.42 239.069 1159.8 238.628 1160.89 237.747C1161.99 236.866 1162.8 235.692 1163.32 234.227C1163.86 232.762 1164.13 231.148 1164.13 229.385C1164.13 227.634 1163.86 226.026 1163.32 224.561C1162.8 223.084 1161.99 221.899 1160.89 221.006C1159.8 220.112 1158.42 219.665 1156.75 219.665C1155.07 219.665 1153.68 220.112 1152.57 221.006C1151.47 221.899 1150.66 223.084 1150.12 224.561C1149.6 226.026 1149.33 227.634 1149.33 229.385C1149.33 231.148 1149.6 232.762 1150.12 234.227C1150.66 235.692 1151.47 236.866 1152.57 237.747C1153.68 238.628 1155.07 239.069 1156.75 239.069ZM1180.83 226.705V243H1175.49V215.556H1180.61V220.023H1180.95C1181.59 218.57 1182.57 217.402 1183.92 216.521C1185.28 215.639 1186.99 215.199 1189.05 215.199C1190.92 215.199 1192.56 215.592 1193.96 216.378C1195.37 217.152 1196.46 218.308 1197.23 219.844C1198.01 221.381 1198.39 223.281 1198.39 225.544V243H1193.05V226.187C1193.05 224.198 1192.53 222.643 1191.5 221.524C1190.46 220.392 1189.04 219.826 1187.23 219.826C1185.99 219.826 1184.88 220.094 1183.92 220.63C1182.97 221.166 1182.21 221.952 1181.65 222.989C1181.1 224.013 1180.83 225.252 1180.83 226.705ZM1219.3 243V206.408H1232.34C1235.19 206.408 1237.55 206.926 1239.42 207.962C1241.29 208.999 1242.69 210.416 1243.62 212.215C1244.55 214.002 1245.01 216.015 1245.01 218.254C1245.01 220.505 1244.54 222.53 1243.6 224.329C1242.67 226.116 1241.27 227.533 1239.38 228.581C1237.51 229.617 1235.16 230.136 1232.33 230.136H1223.36V225.454H1231.83C1233.63 225.454 1235.08 225.145 1236.2 224.525C1237.32 223.894 1238.15 223.036 1238.67 221.952C1239.19 220.869 1239.46 219.636 1239.46 218.254C1239.46 216.872 1239.19 215.645 1238.67 214.573C1238.15 213.501 1237.32 212.662 1236.19 212.054C1235.07 211.447 1233.59 211.143 1231.76 211.143H1224.82V243H1219.3ZM1258.8 243.607C1257.06 243.607 1255.49 243.286 1254.08 242.643C1252.67 241.988 1251.56 241.041 1250.74 239.802C1249.93 238.563 1249.52 237.044 1249.52 235.246C1249.52 233.697 1249.82 232.423 1250.42 231.422C1251.01 230.422 1251.82 229.629 1252.83 229.046C1253.84 228.462 1254.97 228.021 1256.22 227.724C1257.47 227.426 1258.75 227.199 1260.05 227.045C1261.69 226.854 1263.03 226.699 1264.05 226.58C1265.07 226.449 1265.82 226.241 1266.28 225.955C1266.75 225.669 1266.98 225.204 1266.98 224.561V224.436C1266.98 222.876 1266.54 221.667 1265.66 220.809C1264.79 219.951 1263.49 219.523 1261.76 219.523C1259.96 219.523 1258.55 219.922 1257.51 220.72C1256.49 221.506 1255.78 222.381 1255.38 223.346L1250.36 222.203C1250.96 220.535 1251.83 219.189 1252.97 218.165C1254.13 217.128 1255.46 216.378 1256.96 215.913C1258.46 215.437 1260.04 215.199 1261.69 215.199C1262.79 215.199 1263.95 215.33 1265.18 215.592C1266.41 215.842 1267.57 216.306 1268.64 216.985C1269.73 217.664 1270.61 218.635 1271.3 219.898C1271.99 221.148 1272.34 222.774 1272.34 224.775V243H1267.12V239.248H1266.91C1266.56 239.939 1266.05 240.618 1265.35 241.285C1264.66 241.952 1263.78 242.506 1262.69 242.946C1261.61 243.387 1260.31 243.607 1258.8 243.607ZM1259.96 239.319C1261.44 239.319 1262.7 239.028 1263.75 238.444C1264.81 237.86 1265.61 237.098 1266.16 236.157C1266.72 235.204 1267 234.186 1267 233.102V229.564C1266.81 229.754 1266.44 229.933 1265.89 230.1C1265.35 230.255 1264.74 230.392 1264.05 230.511C1263.36 230.618 1262.69 230.719 1262.03 230.815C1261.38 230.898 1260.83 230.969 1260.39 231.029C1259.35 231.16 1258.4 231.38 1257.55 231.69C1256.7 232 1256.02 232.446 1255.51 233.03C1255.01 233.602 1254.76 234.364 1254.76 235.317C1254.76 236.639 1255.25 237.64 1256.22 238.319C1257.2 238.986 1258.45 239.319 1259.96 239.319ZM1279.46 243V215.556H1284.62V219.916H1284.91C1285.41 218.439 1286.29 217.277 1287.55 216.432C1288.82 215.574 1290.27 215.145 1291.87 215.145C1292.21 215.145 1292.6 215.157 1293.05 215.181C1293.52 215.205 1293.88 215.234 1294.14 215.27V220.38C1293.93 220.321 1293.55 220.255 1293 220.184C1292.45 220.1 1291.9 220.059 1291.36 220.059C1290.09 220.059 1288.97 220.327 1287.98 220.863C1287 221.387 1286.23 222.119 1285.66 223.06C1285.08 223.989 1284.8 225.049 1284.8 226.241V243H1279.46ZM1313.2 215.556V219.844H1298.21V215.556H1313.2ZM1302.23 208.981H1307.57V234.942C1307.57 235.978 1307.72 236.758 1308.03 237.283C1308.34 237.795 1308.74 238.146 1309.23 238.337C1309.73 238.515 1310.27 238.605 1310.86 238.605C1311.29 238.605 1311.66 238.575 1311.98 238.515C1312.3 238.456 1312.55 238.408 1312.73 238.372L1313.7 242.786C1313.39 242.905 1312.95 243.024 1312.38 243.143C1311.8 243.274 1311.09 243.345 1310.23 243.357C1308.83 243.381 1307.52 243.131 1306.3 242.607C1305.09 242.083 1304.1 241.273 1303.35 240.177C1302.6 239.081 1302.23 237.705 1302.23 236.05V208.981ZM1324.45 226.705V243H1319.11V215.556H1324.24V220.023H1324.58C1325.21 218.57 1326.19 217.402 1327.54 216.521C1328.9 215.639 1330.61 215.199 1332.67 215.199C1334.54 215.199 1336.18 215.592 1337.58 216.378C1338.99 217.152 1340.08 218.308 1340.85 219.844C1341.63 221.381 1342.01 223.281 1342.01 225.544V243H1336.67V226.187C1336.67 224.198 1336.15 222.643 1335.12 221.524C1334.08 220.392 1332.66 219.826 1330.85 219.826C1329.61 219.826 1328.51 220.094 1327.54 220.63C1326.59 221.166 1325.83 221.952 1325.27 222.989C1324.72 224.013 1324.45 225.252 1324.45 226.705ZM1361.01 243.554C1358.3 243.554 1355.97 242.976 1354.02 241.821C1352.08 240.653 1350.58 239.016 1349.52 236.907C1348.47 234.787 1347.95 232.304 1347.95 229.457C1347.95 226.646 1348.47 224.168 1349.52 222.024C1350.58 219.88 1352.05 218.206 1353.95 217.003C1355.85 215.8 1358.08 215.199 1360.63 215.199C1362.18 215.199 1363.68 215.455 1365.13 215.967C1366.59 216.479 1367.89 217.283 1369.05 218.379C1370.2 219.475 1371.11 220.898 1371.78 222.649C1372.45 224.388 1372.78 226.503 1372.78 228.992V230.886H1350.96V226.884H1367.55C1367.55 225.478 1367.26 224.234 1366.69 223.15C1366.12 222.054 1365.31 221.19 1364.28 220.559C1363.25 219.928 1362.05 219.612 1360.67 219.612C1359.17 219.612 1357.86 219.981 1356.74 220.72C1355.63 221.446 1354.77 222.399 1354.16 223.578C1353.57 224.746 1353.27 226.014 1353.27 227.384V230.511C1353.27 232.345 1353.59 233.906 1354.23 235.192C1354.89 236.478 1355.8 237.461 1356.97 238.14C1358.14 238.807 1359.5 239.141 1361.06 239.141C1362.07 239.141 1363 238.998 1363.83 238.712C1364.66 238.414 1365.38 237.973 1365.99 237.39C1366.6 236.806 1367.06 236.085 1367.38 235.228L1372.44 236.139C1372.04 237.628 1371.31 238.932 1370.26 240.052C1369.23 241.16 1367.92 242.023 1366.35 242.643C1364.79 243.25 1363.01 243.554 1361.01 243.554ZM1378.71 243V215.556H1383.87V219.916H1384.16C1384.66 218.439 1385.54 217.277 1386.8 216.432C1388.08 215.574 1389.52 215.145 1391.13 215.145C1391.46 215.145 1391.85 215.157 1392.3 215.181C1392.77 215.205 1393.13 215.234 1393.39 215.27V220.38C1393.18 220.321 1392.8 220.255 1392.25 220.184C1391.7 220.1 1391.16 220.059 1390.61 220.059C1389.34 220.059 1388.22 220.327 1387.23 220.863C1386.25 221.387 1385.48 222.119 1384.91 223.06C1384.34 223.989 1384.05 225.049 1384.05 226.241V243H1378.71Z" fill="black"/>
</svg>
