<svg width="503" height="584" viewBox="0 0 503 584" fill="none" xmlns="http://www.w3.org/2000/svg">
<path d="M435.065 23.9318C435.065 24.9218 435.065 25.9118 435.065 26.9318C434.405 26.9318 433.745 26.9318 433.065 26.9318C432.792 27.5189 432.519 28.1059 432.237 28.7107C431.095 30.8752 429.861 32.587 428.307 34.4709C427.498 35.4586 427.498 35.4586 426.672 36.4663C426.1 37.1562 425.529 37.8461 424.94 38.5569C423.761 39.9901 422.583 41.4237 421.405 42.8576C420.832 43.5532 420.26 44.2489 419.67 44.9655C416.972 48.2703 414.357 51.6385 411.748 55.0139C410.016 56.9876 408.218 58.4385 406.065 59.9319C405.396 59.5567 404.727 59.1816 404.038 58.7951C397.982 55.5682 392.076 53.108 385.502 51.1819C384.831 50.9837 384.161 50.7856 383.469 50.5815C357.279 43.2202 330.993 45.8259 307.217 58.9519C266.388 82.574 254.412 123.914 242.565 166.826C239.681 177.217 236.79 187.034 230.627 195.994C230.258 196.561 229.889 197.127 229.508 197.711C227.622 200.44 226.491 201.799 223.28 202.803C222.183 202.867 222.183 202.867 221.065 202.932C205.277 167.93 206.945 127.613 219.065 91.9318C219.444 90.8104 219.823 89.6889 220.213 88.5334C232.644 55.6506 264.909 27.5766 296.041 13.007C336.469 -5.09772 399.193 -6.77234 435.065 23.9318Z" fill="#3F88D2"/>
<path d="M280.066 91.1487C282.065 91.9319 282.065 91.9319 283.627 95.2991C284.127 96.7951 284.605 98.2984 285.065 99.8069C285.319 100.607 285.573 101.407 285.835 102.231C289.583 114.402 292.62 127.167 293.065 139.932C293.117 140.995 293.168 142.059 293.221 143.155C294.204 180.774 280.524 213.376 257.065 241.932C256.592 242.509 256.12 243.086 255.633 243.68C252.503 247.485 249.311 251.226 246.065 254.932C245.424 255.671 244.784 256.409 244.124 257.17C220.675 282.442 182.476 291.365 149.545 293.119C119.824 293.73 92.2688 285.391 67.0649 269.932C67.7249 269.602 68.3849 269.272 69.0649 268.932C69.3408 268.378 69.6167 267.823 69.9009 267.252C71.4585 264.147 73.5572 261.529 75.6899 258.807C76.1336 258.235 76.5773 257.663 77.0344 257.074C80.4108 252.734 83.8537 248.448 87.3032 244.166C89.6718 241.162 91.8807 238.072 94.0649 234.932C98.2274 235.574 101.623 236.987 105.44 238.744C129.864 249.617 157.067 249.763 182.065 240.557C184.077 239.709 186.077 238.835 188.065 237.932C189.09 237.479 190.115 237.027 191.17 236.561C198.324 233.215 204.162 229.151 210.065 223.932C210.604 223.464 211.143 222.995 211.699 222.513C235.035 202.147 245.754 177.013 253.78 147.531C257.805 132.823 262.231 118.617 269.065 104.932C269.368 104.318 269.671 103.705 269.983 103.073C276.166 90.7262 276.166 90.7262 280.066 91.1487Z" fill="#3F88D2"/>
<path d="M438.065 26.9319C442.168 28.3092 444.733 30.1683 447.877 33.1194C448.748 33.9263 449.618 34.7333 450.514 35.5647C451.777 36.7365 451.777 36.7365 453.065 37.9319C454.435 39.1249 455.81 40.3129 457.19 41.4944C483.331 64.4982 499.431 98.7972 501.92 133.422C504.066 170.562 495.638 208.856 470.94 237.682C470.475 238.201 470.009 238.721 469.53 239.256C467.767 241.273 466.138 243.373 464.502 245.494C463.909 246.258 463.317 247.021 462.706 247.807C461.377 249.528 460.063 251.259 458.752 252.994C453.354 258.895 446.814 263.669 440.065 267.932C437.443 266.883 436.271 266.283 434.815 263.807C434.567 263.188 434.32 262.569 434.065 261.932C433.405 261.932 432.745 261.932 432.065 261.932C430.507 260.069 429.061 258.2 427.627 256.244C423.5 250.726 419.184 245.432 414.645 240.248C412.364 237.61 410.427 235.158 409.065 231.932C409.827 231.375 410.589 230.818 411.374 230.244C434.191 213.381 451.134 191.694 455.69 162.994C458.51 132.915 451.003 103.331 431.604 79.803C425.272 72.6429 418.188 66.9351 410.065 61.9319C411.661 58.2464 413.96 55.5319 416.565 52.4944C420.29 48.1142 423.851 43.6465 427.315 39.0569C430.628 34.6806 434.023 30.655 438.065 26.9319Z" fill="black"/>
<path d="M65.0652 25.9319C66.1511 27.4084 66.1511 27.4084 67.4402 29.5569C70.7184 34.6591 74.5439 39.1192 78.5173 43.6794C82.3153 48.0409 85.9706 52.4908 89.5417 57.0413C91.0748 59.0128 91.0748 59.0128 93.0652 60.9319C91.8315 61.8407 91.8315 61.8407 90.573 62.7678C72.5823 76.1822 57.5932 93.0131 51.0652 114.932C50.7959 115.826 50.5266 116.719 50.2492 117.64C41.902 146.111 44.878 170.67 59.0327 196.769C61.9306 201.917 65.2782 206.421 69.0652 210.932C69.7032 211.775 70.3413 212.618 70.9987 213.487C75.1822 218.983 79.3398 223.096 85.0652 226.932C86.4006 227.887 87.7341 228.845 89.0652 229.807C90.0552 230.508 91.0452 231.209 92.0652 231.932C90.6826 235.964 88.8248 238.699 86.0652 241.932C82.5603 246.108 79.1768 250.341 75.8777 254.682C72.4113 259.229 68.8521 263.647 65.0652 267.932C33.1336 248.672 12.7875 215.689 3.80734 180.096C-1.05585 158.775 -1.56679 133.125 4.06516 111.932C4.23676 111.245 4.40837 110.557 4.58518 109.849C7.24752 99.269 11.1178 89.638 16.0652 79.9319C16.537 78.9793 17.0088 78.0267 17.4948 77.0452C24.0388 64.3824 32.7945 53.5621 42.6662 43.3777C43.9486 42.0524 45.2129 40.7097 46.4753 39.3655C59.3634 25.9319 59.3634 25.9319 65.0652 25.9319Z" fill="black"/>
<path d="M148.752 0.556973C149.793 0.557789 149.793 0.557789 150.855 0.558621C162.643 0.60084 173.701 1.69686 185.065 4.93197C185.802 5.13033 186.54 5.32868 187.3 5.53305C208.424 11.327 229.224 22.7282 245.065 37.932C246.318 40.151 246.318 40.151 247.065 41.932C244.448 45.9981 241.683 49.6496 238.502 53.307C232.419 60.4252 227.257 68.1532 222.065 75.932C217.339 73.3595 213.293 70.6197 209.127 67.182C186.825 49.6004 158.102 44.2249 130.288 47.2323C118.672 49.0329 107.947 53.3575 97.2915 58.1898C96.5567 58.4347 95.822 58.6796 95.0649 58.932C92.7524 57.682 92.7524 57.682 91.0649 55.932C91.0649 55.272 91.0649 54.612 91.0649 53.932C90.4049 53.932 89.7449 53.932 89.0649 53.932C88.1558 52.5683 87.2536 51.1998 86.3774 49.8148C84.8797 47.6663 83.2081 45.8016 81.4399 43.8695C77.9889 40.0473 74.7349 36.1123 71.5649 32.057C71.1194 31.4974 70.6739 30.9379 70.2148 30.3614C67.0649 26.2858 67.0649 26.2858 67.0649 22.932C92.5385 7.62702 118.938 0.46791 148.752 0.556973Z" fill="#008080"/>
<path d="M279.065 217.932C284.355 218.372 286.964 220.064 291.002 223.432C312.922 240.973 336.983 248.847 365.065 246.932C377.456 245.541 388.731 242.022 400.065 236.932C402.395 235.925 404.73 234.929 407.065 233.932C407.706 234.778 408.346 235.623 409.006 236.494C413.278 242.106 417.564 247.637 422.272 252.893C427.093 258.375 431.728 264.058 436.065 269.932C418.545 281.429 397.691 288.653 377.065 291.932C376.257 292.063 375.448 292.195 374.616 292.33C341.153 296.652 300.288 288.448 273.065 267.932C268.522 264.407 264.043 260.808 259.608 257.149C258.151 256 256.609 254.961 255.065 253.932C256.44 249.906 258.278 247.252 261.065 244.057C267.881 235.939 273.686 227.058 279.065 217.932Z" fill="#008080"/>
<path d="M17.2273 526V351.229H136.529V385.535H59.4692V421.377H128.934V455.767H59.4692V526H17.2273ZM200.553 351.229L232.469 406.443H233.835L266.092 351.229H313.369L260.63 438.615L315.076 526H266.604L233.835 470.189H232.469L199.7 526H151.569L205.759 438.615L152.935 351.229H200.553ZM399.815 526H335.215V351.229H399.73C417.537 351.229 432.869 354.728 445.727 361.726C458.641 368.667 468.597 378.679 475.595 391.765C482.593 404.793 486.091 420.381 486.091 438.529C486.091 456.735 482.593 472.38 475.595 485.465C468.654 498.55 458.727 508.591 445.812 515.589C432.898 522.53 417.566 526 399.815 526ZM377.457 489.988H398.194C407.979 489.988 416.257 488.338 423.027 485.038C429.854 481.682 435.003 476.248 438.473 468.739C442.001 461.172 443.764 451.102 443.764 438.529C443.764 425.956 442.001 415.943 438.473 408.491C434.946 400.981 429.74 395.576 422.857 392.277C416.03 388.92 407.61 387.242 397.597 387.242H377.457V489.988Z" fill="black"/>
</svg>
